<svg width="1065" height="531" viewBox="0 0 1065 531" fill="none" xmlns="http://www.w3.org/2000/svg">
<path d="M287.5 364.548C287.5 364.548 262.23 368.315 262.23 364.548C262.23 360.78 263.49 243.906 262.23 241.212L260.97 238.519C260.97 238.519 211.68 221.284 203.47 204.587C195.26 187.889 188.94 162.574 203.47 173.885C218 185.196 244.54 199.737 250.23 209.428C255.92 219.119 264.13 225.589 264.13 212.122C264.13 198.655 260.34 179.809 258.44 174.422C256.54 169.035 225.58 154.494 218.63 133.492C211.68 112.49 199.67 77.4842 214.84 76.4017C230 75.3277 237.11 94.1733 241.14 103.873C245.17 113.564 261.6 129.725 257.81 113.564C254.02 97.4037 239.49 67.7844 251.49 64.554C263.5 61.3236 276.13 74.7908 275.5 90.4059C274.87 106.021 284.35 118.414 287.51 114.101C290.67 109.797 287.51 62.9346 301.41 61.8606C315.31 60.7866 327.32 73.1713 323.53 83.3995C319.74 93.6363 305.84 117.332 312.79 117.332C319.74 117.332 324.8 99.0231 332.38 90.4059C339.96 81.7886 350.07 81.7886 356.39 89.3319C362.71 96.8752 337.43 144.266 319.74 158.807C302.05 173.348 289.83 160.785 289.2 176.4C288.57 192.015 285.41 214.721 292.99 210.153C300.57 205.576 333.01 180.892 342.49 191.665C351.97 202.439 331.87 219.793 312.37 231.342C295.16 241.536 286.25 235.834 286.25 247.136C286.25 258.438 287.51 364.548 287.51 364.548H287.5Z" fill="#323232"/>
<path d="M322.87 256.836C322.37 242.832 346.88 244.451 350.09 244.451C353.3 244.451 344.82 220.756 352.3 219.674C359.78 218.591 371.75 216.443 372.75 226.134C373.75 235.826 372.25 239.15 382.73 237.76C393.21 236.371 377.74 208.354 396.2 214.014C414.65 219.674 411.66 227.259 411.66 235.05C411.66 242.84 426.12 245.525 426.12 237.445C426.12 229.365 424.12 207.289 438.59 210.519C453.05 213.75 446.57 239.602 456.05 239.602C465.53 239.602 464.03 207.724 479.49 210.195C494.95 212.667 483.98 224.063 495.95 233.448C507.92 242.832 529.87 227.754 529.37 239.065C528.87 250.375 525.38 260.603 508.92 260.066C492.46 259.53 491.96 262.76 491.96 276.227C491.96 289.694 488.47 298.848 479.99 292.388C471.51 285.927 473.01 258.993 465.53 261.149C458.05 263.305 459.54 297.775 448.57 299.922C437.6 302.07 434.6 257.373 423.63 262.76C412.66 268.147 420.14 298.303 401.19 297.766C382.24 297.229 400.19 267.064 385.73 265.453C371.27 263.834 380.24 300.613 364.28 299.999C348.32 299.385 370.27 259.53 354.8 263.297C339.33 267.064 321.87 263.834 322.87 262.76C323.88 261.686 322.87 256.836 322.87 256.836Z" fill="#323232"/>
<path d="M178 278.435H138.19V268.189C138.19 260.919 145.1 255.029 153.63 255.029H251.35V262.206C251.35 271.173 242.82 278.435 232.31 278.435H211.73V358.394H195.54C185.86 358.394 178.01 351.703 178.01 343.452V278.443L178 278.435Z" fill="#323232"/>
<path d="M46.3903 163.648V135.751H34.3403V128.344H68.8003V135.751H56.6403V163.648H46.3903Z" fill="#323232"/>
<path d="M82.1802 146.005V110.709H101.99C106.24 110.709 109.71 111.604 112.42 113.402C115.12 115.201 116.47 117.69 116.47 120.886C116.47 125.165 114.07 128.012 109.29 129.427V129.571C112.77 130.56 114.77 132.717 115.31 136.041C115.54 137.191 115.71 138.615 115.8 140.311C115.9 142.007 116.02 143.277 116.18 144.113C116.33 144.948 116.62 145.434 117.05 145.57V146.013H107.09C106.78 145.851 106.54 145.374 106.37 144.581C106.2 143.789 106.05 142.672 105.94 141.223C105.82 139.774 105.69 138.64 105.53 137.814C104.99 134.455 102.69 132.776 98.6402 132.776H92.4402V146.005H82.1902H82.1802ZM92.4302 126.307H100.13C102.14 126.307 103.66 125.932 104.71 125.173C105.75 124.415 106.27 123.366 106.27 122.011C106.27 120.656 105.77 119.633 104.76 118.823C103.76 118.014 102.29 117.613 100.36 117.613H92.4302V126.298V126.307Z" fill="#323232"/>
<path d="M124.03 157.256L138.92 121.96H149.46L164.4 157.256H153.63L151.2 150.889H136.72L134.35 157.256H124.04H124.03ZM139.09 144.615H148.82L145.69 136.075L144.07 131.089H143.95C143.29 133.194 142.73 134.856 142.27 136.075L139.08 144.615H139.09Z" fill="#323232"/>
<path d="M43.8402 218.404L28.2002 185.716L45.4702 179.715C49.9702 178.147 53.9402 177.942 57.3702 179.093C60.9202 180.244 63.4902 182.477 65.0802 185.793C66.6002 188.963 66.6402 191.947 65.2102 194.759C63.7802 197.572 61.1202 199.652 57.2202 201.007L48.2602 204.118L53.4902 215.045L43.8402 218.404ZM45.2002 197.725L52.2302 195.279C53.9102 194.691 55.0302 193.839 55.6002 192.722C56.1702 191.597 56.1402 190.387 55.5102 189.074C54.8802 187.761 53.9202 186.901 52.6102 186.483C51.3002 186.065 49.8102 186.151 48.1302 186.73L41.1002 189.176L45.1902 197.725H45.2002Z" fill="#323232"/>
<path d="M72.6304 188.912L87.5204 153.616H98.0604L113 188.912H102.23L99.8004 182.545H85.3204L82.9504 188.912H72.6404H72.6304ZM87.6904 176.272H97.4204L94.2904 167.731L92.6704 162.745H92.5504C91.8904 164.85 91.3304 166.512 90.8704 167.731L87.6804 176.272H87.6904Z" fill="#323232"/>
<path d="M108.39 227.251V191.955H126.06C131.81 191.955 136.45 193.583 139.96 196.839C143.47 200.095 145.23 204.425 145.23 209.82C145.23 216.17 142.83 220.909 138.05 224.038C134.69 226.177 130.48 227.251 125.42 227.251H108.39ZM118.64 219.895H124.66C127.98 219.895 130.51 219.034 132.25 217.304C133.99 215.574 134.86 213.085 134.86 209.82C134.86 206.556 133.97 203.99 132.2 202.098C130.42 200.206 127.95 199.26 124.79 199.26H118.65V219.895H118.64Z" fill="#323232"/>
<path d="M153.98 203.862L134.61 172.666L143.67 168.575L163.04 199.771L153.98 203.862Z" fill="#323232"/>
<path d="M411.8 358.701V330.803H399.75V323.396H434.21V330.803H422.05V358.701H411.8Z" fill="#323232"/>
<path d="M447.6 341.057V305.761H467.41C471.66 305.761 475.13 306.656 477.84 308.454C480.54 310.253 481.89 312.742 481.89 315.938C481.89 320.217 479.49 323.064 474.71 324.479V324.624C478.19 325.612 480.19 327.769 480.73 331.093C480.96 332.244 481.13 333.667 481.22 335.363C481.32 337.059 481.44 338.329 481.6 339.165C481.75 340 482.04 340.486 482.47 340.622V341.065H472.51C472.2 340.903 471.96 340.426 471.79 339.633C471.62 338.841 471.47 337.724 471.36 336.275C471.24 334.826 471.11 333.693 470.95 332.866C470.41 329.508 468.11 327.828 464.06 327.828H457.86V341.057H447.61H447.6ZM457.85 321.359H465.55C467.56 321.359 469.08 320.984 470.13 320.225C471.17 319.467 471.69 318.418 471.69 317.063C471.69 315.708 471.19 314.685 470.18 313.875C469.18 313.066 467.71 312.665 465.78 312.665H457.85V321.351V321.359Z" fill="#323232"/>
<path d="M489.45 352.308L504.34 317.012H514.88L529.82 352.308H519.05L516.62 345.941H502.14L499.77 352.308H489.46H489.45ZM504.51 339.668H514.24L511.11 331.127L509.49 326.141H509.37C508.71 328.246 508.15 329.908 507.69 331.127L504.5 339.668H504.51Z" fill="#323232"/>
<path d="M409.25 413.456L393.61 380.768L410.88 374.767C415.38 373.199 419.35 372.994 422.78 374.145C426.33 375.296 428.9 377.529 430.49 380.845C432.01 384.015 432.05 386.999 430.62 389.811C429.19 392.624 426.53 394.704 422.63 396.059L413.67 399.17L418.9 410.097L409.25 413.456ZM410.61 392.778L417.64 390.331C419.32 389.743 420.44 388.891 421.01 387.774C421.58 386.649 421.55 385.439 420.92 384.126C420.29 382.814 419.33 381.953 418.02 381.535C416.71 381.117 415.22 381.203 413.54 381.782L406.51 384.228L410.6 392.778H410.61Z" fill="#323232"/>
<path d="M438.04 383.964L452.93 348.668H463.47L478.41 383.964H467.64L465.21 377.597H450.73L448.36 383.964H438.05H438.04ZM453.1 371.324H462.83L459.7 362.783L458.08 357.797H457.96C457.3 359.902 456.74 361.565 456.28 362.783L453.09 371.324H453.1Z" fill="#323232"/>
<path d="M473.81 422.303V387.007H491.48C497.23 387.007 501.87 388.635 505.38 391.891C508.89 395.147 510.65 399.477 510.65 404.872C510.65 411.222 508.25 415.962 503.47 419.09C500.11 421.229 495.9 422.303 490.84 422.303H473.81ZM484.06 414.947H490.08C493.4 414.947 495.93 414.086 497.67 412.356C499.41 410.626 500.28 408.137 500.28 404.872C500.28 401.608 499.39 399.042 497.62 397.15C495.84 395.258 493.37 394.312 490.21 394.312H484.07V414.947H484.06Z" fill="#323232"/>
<path d="M519.39 398.915L500.02 367.718L509.08 363.627L528.45 394.823L519.39 398.915Z" fill="#323232"/>
<path d="M449.9 147.769L398.66 198.211C398.49 198.382 398.32 198.544 398.14 198.672C396.64 200.027 394.85 201.033 392.93 201.68C388.56 202.882 383.05 202.158 378.06 199.592C376.84 198.987 375.64 198.254 374.51 197.419C373.38 196.592 372.36 195.68 371.48 194.734C367.79 190.89 366.17 186.364 366.94 182.502C367.42 180.798 368.33 179.144 369.69 177.678C369.82 177.499 369.98 177.337 370.15 177.167L417.58 130.475L428.7 138.683L385.31 181.394C383.84 182.843 384.01 185.025 385.72 186.287C387.42 187.54 389.98 187.369 391.45 185.92L395.7 181.735C395.7 181.735 395.76 181.804 395.79 181.846L438.76 139.544L449.88 147.752L449.9 147.769Z" fill="#323232"/>
<path d="M371.49 194.742C367.31 191.589 365.76 186.867 366.95 182.511C366.18 186.372 367.8 190.907 371.49 194.742Z" fill="#323232"/>
<path d="M392.93 201.68C388.04 203.308 382.32 202.669 378.06 199.592C383.05 202.149 388.56 202.882 392.93 201.68Z" fill="#323232"/>
<path d="M369.7 177.687C368.35 179.153 367.43 180.798 366.95 182.511C367.3 180.798 368.13 179.204 369.47 177.883C369.53 177.815 369.61 177.738 369.69 177.687H369.7Z" fill="#323232"/>
<path d="M397.94 198.893C396.6 200.214 394.86 201.143 392.93 201.68C394.85 201.033 396.63 200.027 398.14 198.672C398.09 198.748 398.01 198.825 397.95 198.885L397.94 198.893Z" fill="#323232"/>
<path d="M482.31 171.695L438.77 139.561L442.66 135.734C450.19 128.318 463.349 127.509 472.049 133.935L499.84 154.443L482.31 171.695Z" fill="#323232"/>
<path d="M387.9 108.578L428.71 138.692L431.94 135.512C439.47 128.097 438.53 116.88 429.83 110.462L404.77 91.9742L387.9 108.578Z" fill="#323232"/>
<path d="M110.56 74.5521L161.8 124.994C161.97 125.165 162.14 125.327 162.32 125.455C163.82 126.81 165.61 127.816 167.53 128.463C171.9 129.665 177.41 128.941 182.4 126.375C183.62 125.77 184.82 125.037 185.95 124.202C187.08 123.366 188.1 122.463 188.98 121.517C192.67 117.673 194.29 113.147 193.52 109.285C193.04 107.581 192.13 105.927 190.77 104.461C190.64 104.282 190.48 104.12 190.31 103.95L142.88 57.2579L131.76 65.466L175.15 108.177C176.62 109.626 176.45 111.808 174.74 113.07C173.04 114.323 170.48 114.152 169.01 112.703L164.76 108.518C164.76 108.518 164.7 108.587 164.67 108.629L121.7 66.3269L110.58 74.535L110.56 74.5521Z" fill="#323232"/>
<path d="M188.97 121.525C193.15 118.371 194.7 113.649 193.51 109.294C194.28 113.155 192.66 117.69 188.97 121.525Z" fill="#323232"/>
<path d="M167.53 128.463C172.42 130.091 178.14 129.452 182.4 126.375C177.41 128.932 171.9 129.665 167.53 128.463Z" fill="#323232"/>
<path d="M190.76 104.47C192.11 105.936 193.03 107.581 193.51 109.294C193.16 107.581 192.33 105.987 190.99 104.666C190.93 104.598 190.85 104.521 190.77 104.47H190.76Z" fill="#323232"/>
<path d="M162.51 125.676C163.85 126.997 165.59 127.926 167.52 128.463C165.6 127.816 163.82 126.81 162.31 125.455C162.36 125.531 162.44 125.608 162.5 125.668L162.51 125.676Z" fill="#323232"/>
<path d="M78.1501 98.4777L121.69 66.344L117.8 62.5169C110.27 55.1015 97.1101 54.2917 88.4101 60.7185L60.6201 81.226L78.1501 98.4777Z" fill="#323232"/>
<path d="M172.56 35.361L131.75 65.4745L128.52 62.2953C120.99 54.8798 121.93 43.6629 130.63 37.2446L155.69 18.7571L172.56 35.361Z" fill="#323232"/>
<path d="M308.3 396.324C307.72 365.085 301.4 276.764 327.94 279.449C354.48 282.142 348.16 313.381 350.06 348.387C351.96 383.393 361.43 398.471 350.06 399.017C338.69 399.562 308.3 396.324 308.3 396.324Z" fill="#323232"/>
<path d="M181.98 385.55C219.89 385.55 302.67 369.389 298.24 385.55C293.82 401.71 268.54 410.328 281.18 428.636C293.82 446.945 330.47 421.638 314.67 467.41C298.87 513.189 314.04 524.5 262.86 527.194C211.68 529.887 204.1 527.194 204.1 527.194C204.1 527.194 159.63 476.027 173.02 466.336C186.41 456.644 232.54 451.794 225.59 430.247C218.64 408.708 181.99 385.55 181.99 385.55H181.98Z" fill="#323232"/>
<path d="M74.8599 339.233C91.6199 332.235 104.01 353.774 106.03 361.317C108.05 368.861 115.85 360.243 117.01 333.846C118.17 307.457 122.85 310.688 138.2 323.072C153.55 335.457 132.47 391.474 135.43 404.395C138.39 417.317 148.69 403.321 157.44 389.854C166.19 376.387 177.98 385.507 170.51 409.492C163.03 433.477 151.49 432.94 152.84 456.099C154.19 479.257 169.18 486.801 152.84 488.412C136.5 490.031 134.6 465.79 110.59 457.71C86.5799 449.629 67.9399 436.708 64.6199 427.008C61.2999 417.317 66.3199 403.279 74.8699 409.484C83.4199 415.697 106.8 432.932 110.59 427.008C114.38 421.084 72.3499 396.306 60.1899 388.772C48.0299 381.228 50.2299 376.387 60.1899 371.537C70.1499 366.687 105.96 392.121 112.38 399.068C118.8 406.006 89.8199 382.967 81.2499 366.218C72.6799 349.461 74.8699 339.233 74.8699 339.233H74.8599Z" fill="#323232"/>
<path d="M479.71 110.7C507.346 110.7 529.75 91.6045 529.75 68.0487C529.75 44.4928 507.346 25.397 479.71 25.397C452.074 25.397 429.67 44.4928 429.67 68.0487C429.67 91.6045 452.074 110.7 479.71 110.7Z" fill="#323232"/>
<path d="M60.18 336.505C27 336.505 0 313.5 0 285.211C0 256.921 26.99 233.916 60.18 233.916C93.37 233.916 120.36 256.93 120.36 285.211C120.36 313.492 93.37 336.505 60.18 336.505ZM60.18 255.881C41.21 255.881 25.77 269.042 25.77 285.211C25.77 301.38 41.21 314.54 60.18 314.54C79.15 314.54 94.59 301.38 94.59 285.211C94.59 269.042 79.15 255.881 60.18 255.881Z" fill="#323232"/>
<path d="M499.32 488.497C515.916 488.497 529.37 477.029 529.37 462.884C529.37 448.738 515.916 437.271 499.32 437.271C482.724 437.271 469.27 448.738 469.27 462.884C469.27 477.029 482.724 488.497 499.32 488.497Z" fill="#323232"/>
<path d="M416.05 440.041L456.48 475.763L439.58 489.656C434.36 493.952 426.04 493.824 421 489.375C422.58 501.342 418.56 511.28 408.94 519.19C399.53 526.921 388.21 530.543 374.97 530.032C361.73 529.529 349.97 524.739 339.7 515.661C327.73 505.092 322.16 492.622 322.97 478.269C323.78 463.915 330.91 452.246 342.48 441.686C361.55 424.289 389.42 416.516 416.05 440.041ZM398.4 491.889C405.03 486.4 405.2 477.271 398.79 471.603L384.95 459.372C378.92 454.045 368.96 453.874 362.69 459.005C357.93 462.918 355.43 467.486 355.16 472.72C354.9 477.953 357.86 483.306 364.04 488.761C369.72 493.781 375.63 496.577 381.76 497.148C387.89 497.719 393.44 495.963 398.4 491.889Z" fill="#323232"/>
<path d="M515.18 502.791H438.83C429.988 502.791 422.82 508.898 422.82 516.433C422.82 523.967 429.988 530.074 438.83 530.074H515.18C524.022 530.074 531.19 523.967 531.19 516.433C531.19 508.898 524.022 502.791 515.18 502.791Z" fill="#323232"/>
<path d="M29.57 387.476C47.26 385.712 37.15 402.23 47.26 430.238C57.37 458.247 76.75 489.639 111.29 489.383C145.83 489.127 163.52 499.177 163.52 509.95V529.282C163.52 529.282 16.93 534.754 15.24 517.323C13.56 499.893 18.61 486.971 15.24 464.708C11.87 442.444 -10.03 397.5 7.66001 390.169C25.35 382.839 29.56 387.476 29.56 387.476H29.57Z" fill="#323232"/>
<path d="M9.43018 101.367V57.8375L23.9902 55.3827C28.5002 54.6241 32.7002 57.5648 32.7002 61.4771V109.925H19.4902C13.9402 109.925 9.44018 106.089 9.44018 101.359L9.43018 101.367Z" fill="#323232"/>
<path d="M204.56 42.9725L239.22 11.0007L251.86 17.6235C255.78 19.6777 256.52 24.2633 253.4 27.1358L214.82 62.7215L205.12 55.0759C201.04 51.8625 200.79 46.4415 204.56 42.9639V42.9725Z" fill="#323232"/>
<path d="M30.4598 44.5408C27.8698 46.5609 24.6998 47.5666 20.9298 47.5666C17.1598 47.5666 14.0298 46.5779 11.5298 44.6005C9.02979 42.623 7.77979 40.0659 7.77979 36.9293C7.77979 33.7926 9.04978 31.406 11.5898 29.3093C14.1298 27.221 17.2398 26.1726 20.9198 26.1726C24.5998 26.1726 27.8598 27.221 30.4498 29.3093C33.0298 31.3975 34.3298 33.9375 34.3298 36.9293C34.3298 39.921 33.0398 42.5292 30.4498 44.5493L30.4598 44.5408Z" fill="#323232"/>
<path d="M64.93 44.5408C62.34 46.5609 59.17 47.5666 55.4 47.5666C51.63 47.5666 48.5 46.5779 46 44.6005C43.5 42.623 42.25 40.0659 42.25 36.9293C42.25 33.7926 43.52 31.406 46.06 29.3093C48.6 27.221 51.71 26.1726 55.39 26.1726C59.07 26.1726 62.33 27.221 64.92 29.3093C67.5 31.3975 68.8 33.9375 68.8 36.9293C68.8 39.921 67.51 42.5292 64.92 44.5493L64.93 44.5408Z" fill="#323232"/>
<path d="M102.21 43.5947C99.6198 45.6148 96.4498 46.6205 92.6798 46.6205C88.9098 46.6205 85.7798 45.6318 83.2798 43.6544C80.7798 41.6769 79.5298 39.1198 79.5298 35.9832C79.5298 32.8465 80.7998 30.4599 83.3398 28.3632C85.8798 26.2749 88.9898 25.2265 92.6698 25.2265C96.3498 25.2265 99.6098 26.2749 102.2 28.3632C104.78 30.4514 106.08 32.9914 106.08 35.9832C106.08 38.9749 104.79 41.5831 102.2 43.6032L102.21 43.5947Z" fill="#323232"/>
<path d="M69.5799 117.613C66.9899 119.633 63.8199 120.639 60.0499 120.639C56.2799 120.639 53.1499 119.65 50.6499 117.673C48.1499 115.695 46.8999 113.138 46.8999 110.001C46.8999 106.865 48.1699 104.478 50.7099 102.381C53.2499 100.293 56.3599 99.2447 60.0399 99.2447C63.7199 99.2447 66.9799 100.293 69.5699 102.381C72.1499 104.47 73.4499 107.01 73.4499 110.001C73.4499 112.993 72.1599 115.601 69.5699 117.621L69.5799 117.613Z" fill="#323232"/>
<path d="M30.4598 170.416C27.8698 172.436 24.6998 173.442 20.9298 173.442C17.1598 173.442 14.0298 172.453 11.5298 170.476C9.02979 168.498 7.77979 165.941 7.77979 162.805C7.77979 159.668 9.04978 157.281 11.5898 155.185C14.1298 153.096 17.2398 152.048 20.9198 152.048C24.5998 152.048 27.8598 153.096 30.4498 155.185C33.0298 157.273 34.3298 159.813 34.3298 162.805C34.3298 165.796 33.0398 168.405 30.4498 170.425L30.4598 170.416Z" fill="#323232"/>
<path d="M274.86 26.0448C274.22 29.0536 271.48 54.2406 284.09 52.6041C296.7 50.959 290.61 26.5988 300.08 28.7893C309.55 30.9799 302.81 57.0022 324.33 57.2664C345.85 57.5307 335.25 37.543 335.89 32.6164C336.53 27.6898 342.96 21.1182 349.06 29.3349C355.16 37.5515 352.59 56.4396 366.08 56.1669C379.57 55.8941 378.61 40.2876 378.61 33.4432C378.61 26.5988 378.2 20.2999 384.83 23.8628C391.46 27.4256 388.57 55.6129 405.59 53.84C422.61 52.0671 419.63 44.9414 420.48 30.4344C421.33 15.9274 421.65 4.14786 406.55 8.2562C391.45 12.3645 384.07 16.4729 376.04 12.91C368.01 9.34721 357.09 1.13906 348.1 6.61116C339.11 12.0833 323.69 17.8366 311.8 14.001C299.91 10.1655 287.83 4.14786 280.38 12.356C272.93 20.5727 274.86 26.0448 274.86 26.0448Z" fill="#323232"/>
<path d="M784.82 359.766C784.82 359.766 810.09 363.533 810.09 359.766C810.09 355.999 808.83 239.124 810.09 236.431L811.35 233.737C811.35 233.737 860.64 216.503 868.85 199.805C877.06 183.108 883.38 157.793 868.85 169.103C854.32 180.414 827.78 194.955 822.09 204.647C816.4 214.338 808.19 220.807 808.19 207.34C808.19 193.873 811.98 175.027 813.88 169.64C815.78 164.254 846.74 149.712 853.69 128.711C860.64 107.709 872.65 72.7025 857.48 71.62C842.32 70.546 835.21 89.3915 831.18 99.0913C827.15 108.783 810.72 124.943 814.51 108.783C818.3 92.6219 832.83 63.0027 820.83 59.7723C808.82 56.5419 796.19 70.009 796.82 85.6241C797.45 101.239 787.97 113.632 784.81 109.319C781.65 105.015 784.81 58.1528 770.91 57.0789C757.01 56.0049 745 68.3896 748.79 78.6178C752.58 88.8545 766.48 112.55 759.53 112.55C752.58 112.55 747.52 94.2414 739.94 85.6241C732.36 77.0068 722.25 77.0068 715.93 84.5502C709.61 92.0935 734.89 139.484 752.58 154.025C770.27 168.566 782.49 156.003 783.12 171.618C783.75 187.233 786.91 209.94 779.33 205.371C771.75 200.794 739.31 176.11 729.83 186.884C720.35 197.657 740.45 215.011 759.95 226.561C777.16 236.755 786.07 231.052 786.07 242.355C786.07 253.665 784.81 359.766 784.81 359.766H784.82Z" fill="#323232"/>
<path d="M743.61 252.046C744.11 238.042 719.6 239.661 716.39 239.661C713.18 239.661 721.66 215.966 714.18 214.883C706.7 213.801 694.73 211.653 693.73 221.344C692.73 231.035 694.23 234.36 683.75 232.97C673.28 231.581 688.74 203.564 670.28 209.224C651.83 214.883 654.82 222.469 654.82 230.26C654.82 238.042 640.36 240.735 640.36 232.655C640.36 224.575 642.36 202.499 627.89 205.729C613.43 208.959 619.91 234.811 610.43 234.811C600.95 234.811 602.45 202.933 586.99 205.405C571.53 207.877 582.5 219.273 570.53 228.657C558.56 238.042 536.61 222.964 537.11 234.274C537.61 245.585 541.1 255.813 557.56 255.276C574.02 254.739 574.52 257.97 574.52 271.437C574.52 284.904 578.01 294.058 586.49 287.597C594.97 281.137 593.47 254.202 600.95 256.359C608.43 258.515 606.94 292.984 617.91 295.132C628.88 297.289 631.88 252.583 642.85 257.97C653.82 263.357 646.34 293.513 665.29 292.976C684.24 292.439 666.29 262.274 680.75 260.663C695.21 259.044 686.24 295.823 702.2 295.209C718.16 294.595 696.21 254.739 711.68 258.507C727.14 262.274 744.61 259.044 743.61 257.97C742.6 256.896 743.61 252.046 743.61 252.046Z" fill="#323232"/>
<path d="M894.32 338.662C894.32 346.913 886.47 353.604 876.79 353.604H860.6V273.644H840.02C829.5 273.644 820.98 266.374 820.98 257.416V250.239H918.7C927.23 250.239 934.14 256.129 934.14 263.399V273.644H894.33V338.653L894.32 338.662Z" fill="#323232"/>
<path d="M926.12 158.867V130.969H914.07V123.562H948.53V130.969H936.37V158.867H926.12Z" fill="#323232"/>
<path d="M961.91 141.215V105.919H981.72C985.97 105.919 989.44 106.814 992.15 108.612C994.85 110.411 996.2 112.899 996.2 116.096C996.2 120.375 993.8 123.221 989.02 124.636V124.781C992.5 125.77 994.5 127.926 995.04 131.251C995.27 132.401 995.44 133.825 995.53 135.521C995.63 137.217 995.75 138.487 995.91 139.322C996.06 140.158 996.35 140.643 996.78 140.78V141.223H986.82C986.51 141.061 986.27 140.584 986.1 139.791C985.93 138.998 985.78 137.882 985.67 136.433C985.55 134.984 985.42 133.85 985.26 133.023C984.72 129.665 982.42 127.986 978.37 127.986H972.17V141.215H961.92H961.91ZM972.16 121.517H979.86C981.87 121.517 983.39 121.142 984.44 120.383C985.48 119.624 986 118.576 986 117.221C986 115.866 985.5 114.843 984.49 114.033C983.49 113.223 982.02 112.823 980.09 112.823H972.16V121.508V121.517Z" fill="#323232"/>
<path d="M1003.76 152.474L1018.65 117.178H1029.19L1044.13 152.474H1033.36L1030.93 146.107H1016.45L1014.08 152.474H1003.77H1003.76ZM1018.82 139.834H1028.55L1025.42 131.293L1023.8 126.307H1023.68C1023.02 128.412 1022.46 130.074 1022 131.293L1018.81 139.834H1018.82Z" fill="#323232"/>
<path d="M923.57 213.622L907.93 180.934L925.2 174.934C929.7 173.365 933.67 173.161 937.1 174.311C940.65 175.462 943.22 177.695 944.81 181.011C946.33 184.182 946.37 187.165 944.94 189.978C943.51 192.79 940.85 194.87 936.95 196.225L927.99 199.336L933.22 210.264L923.57 213.622ZM924.93 192.944L931.96 190.497C933.64 189.909 934.76 189.057 935.33 187.94C935.9 186.815 935.87 185.605 935.24 184.292C934.61 182.98 933.65 182.119 932.34 181.701C931.03 181.284 929.54 181.369 927.86 181.948L920.83 184.395L924.92 192.944H924.93Z" fill="#323232"/>
<path d="M952.36 184.122L967.25 148.826H977.79L992.73 184.122H981.96L979.53 177.755H965.05L962.68 184.122H952.37H952.36ZM967.42 171.482H977.15L974.02 162.941L972.4 157.955H972.28C971.62 160.06 971.06 161.722 970.6 162.941L967.41 171.482H967.42Z" fill="#323232"/>
<path d="M988.12 222.469V187.173H1005.79C1011.54 187.173 1016.18 188.801 1019.69 192.057C1023.2 195.313 1024.96 199.643 1024.96 205.039C1024.96 211.389 1022.56 216.128 1017.78 219.256C1014.42 221.395 1010.21 222.469 1005.15 222.469H988.12ZM998.37 215.113H1004.39C1007.71 215.113 1010.24 214.253 1011.98 212.522C1013.72 210.792 1014.59 208.303 1014.59 205.039C1014.59 201.774 1013.7 199.209 1011.93 197.316C1010.15 195.424 1007.68 194.478 1004.52 194.478H998.38V215.113H998.37Z" fill="#323232"/>
<path d="M1033.71 199.081L1014.34 167.885L1023.4 163.793L1042.77 194.989L1033.71 199.081Z" fill="#323232"/>
<path d="M551.14 53.9252V32.8891H542.05V27.3062H568.04V32.8891H558.87V53.9252H551.14Z" fill="#323232"/>
<path d="M578.14 40.6114V13.9925H593.08C596.28 13.9925 598.9 14.6658 600.94 16.0211C602.98 17.3763 604 19.2515 604 21.6637C604 24.8941 602.19 27.0335 598.58 28.1074V28.2182C601.2 28.9598 602.71 30.5878 603.12 33.0937C603.29 33.9631 603.42 35.0371 603.49 36.3156C603.56 37.5941 603.66 38.5488 603.77 39.1795C603.89 39.8102 604.1 40.1767 604.43 40.279V40.6114H596.92C596.69 40.4836 596.5 40.1256 596.37 39.529C596.24 38.9323 596.13 38.0885 596.04 36.9975C595.95 35.9065 595.85 35.0456 595.73 34.4319C595.32 31.9004 593.59 30.6304 590.53 30.6304H585.86V40.6114H578.13H578.14ZM585.87 25.755H591.68C593.19 25.755 594.34 25.4737 595.13 24.9026C595.92 24.3315 596.31 23.5388 596.31 22.516C596.31 21.4932 595.93 20.7261 595.17 20.1124C594.41 19.5072 593.31 19.2004 591.85 19.2004H585.87V25.755Z" fill="#323232"/>
<path d="M609.69 49.1009L620.92 22.4819H628.87L640.14 49.1009H632.02L630.19 44.3021H619.27L617.48 49.1009H609.7H609.69ZM621.05 39.5716H628.39L626.03 33.1278L624.81 29.3689H624.72C624.22 30.9543 623.8 32.2073 623.45 33.1278L621.05 39.5716Z" fill="#323232"/>
<path d="M549.22 95.2131L537.42 70.5631L550.44 66.0371C553.84 64.8523 556.83 64.6989 559.42 65.5683C562.1 66.4292 564.04 68.1168 565.24 70.6227C566.38 73.0093 566.42 75.2681 565.34 77.3819C564.26 79.4957 562.25 81.0726 559.31 82.0869L552.56 84.4308L556.5 92.6731L549.22 95.2046V95.2131ZM550.25 79.6151L555.55 77.774C556.82 77.3307 557.67 76.6915 558.09 75.8477C558.52 75.0038 558.5 74.0833 558.02 73.0946C557.54 72.1058 556.82 71.458 555.83 71.1427C554.85 70.8273 553.72 70.887 552.45 71.3302L547.15 73.1713L550.23 79.6151H550.25Z" fill="#323232"/>
<path d="M570.93 72.9753L582.16 46.3563H590.11L601.38 72.9753H593.26L591.43 68.1765H580.51L578.72 72.9753H570.94H570.93ZM582.29 63.446H589.63L587.27 57.0022L586.05 53.2433H585.96C585.46 54.8287 585.04 56.0817 584.69 57.0022L582.29 63.446Z" fill="#323232"/>
<path d="M597.9 101.887V75.2681H611.22C615.56 75.2681 619.05 76.4954 621.7 78.9502C624.35 81.405 625.68 84.6695 625.68 88.7437C625.68 93.534 623.87 97.1053 620.26 99.4663C617.73 101.077 614.55 101.887 610.74 101.887H597.9ZM605.63 96.3382H610.17C612.67 96.3382 614.58 95.6904 615.89 94.3863C617.2 93.0822 617.86 91.207 617.86 88.7437C617.86 86.2804 617.19 84.3456 615.85 82.9137C614.51 81.4902 612.65 80.7743 610.26 80.7743H605.63V96.3382Z" fill="#323232"/>
<path d="M632.28 84.2518L617.67 60.7269L624.5 57.6414L639.11 81.1663L632.28 84.2518Z" fill="#323232"/>
<path d="M622.43 142.987L673.67 193.43C673.84 193.6 674.01 193.762 674.19 193.89C675.69 195.245 677.48 196.251 679.4 196.899C683.77 198.1 689.28 197.376 694.27 194.81C695.49 194.205 696.69 193.472 697.82 192.637C698.95 191.802 699.97 190.898 700.85 189.952C704.54 186.108 706.16 181.582 705.39 177.721C704.91 176.016 704 174.362 702.64 172.896C702.51 172.717 702.35 172.555 702.18 172.385L654.75 125.693L643.63 133.901L687.02 176.613C688.49 178.062 688.32 180.244 686.61 181.505C684.9 182.767 682.35 182.588 680.88 181.139L676.63 176.954C676.63 176.954 676.57 177.022 676.54 177.064L633.57 134.762L622.45 142.97L622.43 142.987Z" fill="#323232"/>
<path d="M700.84 189.961C705.02 186.807 706.57 182.085 705.38 177.729C706.15 181.59 704.53 186.125 700.84 189.961Z" fill="#323232"/>
<path d="M679.4 196.899C684.29 198.527 690.01 197.887 694.27 194.81C689.28 197.367 683.77 198.1 679.4 196.899Z" fill="#323232"/>
<path d="M702.63 172.905C703.98 174.371 704.9 176.016 705.38 177.729C705.03 176.016 704.2 174.422 702.86 173.101C702.8 173.033 702.72 172.956 702.64 172.905H702.63Z" fill="#323232"/>
<path d="M674.38 194.103C675.72 195.424 677.46 196.353 679.39 196.89C677.47 196.242 675.69 195.237 674.18 193.881C674.23 193.958 674.31 194.035 674.37 194.094L674.38 194.103Z" fill="#323232"/>
<path d="M590.02 166.913L633.56 134.779L629.67 130.952C622.14 123.537 608.98 122.727 600.28 129.154L572.49 149.661L590.02 166.913Z" fill="#323232"/>
<path d="M684.43 103.796L643.62 133.91L640.39 130.731C632.86 123.315 633.8 112.098 642.5 105.68L667.56 87.1924L684.43 103.796Z" fill="#323232"/>
<path d="M961.77 69.7704L910.53 120.213C910.36 120.383 910.19 120.545 910.01 120.673C908.51 122.028 906.72 123.034 904.8 123.682C900.43 124.883 894.92 124.159 889.93 121.593C888.71 120.988 887.51 120.255 886.38 119.42C885.25 118.585 884.23 117.681 883.35 116.735C879.66 112.891 878.04 108.365 878.81 104.504C879.29 102.799 880.2 101.145 881.56 99.6794C881.69 99.5005 881.85 99.3385 882.02 99.168L929.45 52.4762L940.57 60.6843L897.18 103.396C895.71 104.845 895.88 107.027 897.59 108.288C899.29 109.541 901.85 109.371 903.32 107.922L907.57 103.737C907.57 103.737 907.63 103.805 907.66 103.847L950.63 61.5452L961.75 69.7534L961.77 69.7704Z" fill="#323232"/>
<path d="M883.36 116.744C879.18 113.59 877.63 108.868 878.82 104.512C878.05 108.373 879.67 112.908 883.36 116.744Z" fill="#323232"/>
<path d="M904.8 123.682C899.91 125.31 894.19 124.67 889.93 121.593C894.92 124.15 900.43 124.883 904.8 123.682Z" fill="#323232"/>
<path d="M881.57 99.688C880.22 101.154 879.3 102.799 878.82 104.512C879.17 102.799 880 101.205 881.34 99.884C881.4 99.8158 881.48 99.7391 881.56 99.688H881.57Z" fill="#323232"/>
<path d="M909.81 120.886C908.47 122.207 906.73 123.136 904.8 123.673C906.72 123.025 908.5 122.02 910.01 120.664C909.96 120.741 909.88 120.818 909.82 120.877L909.81 120.886Z" fill="#323232"/>
<path d="M994.18 93.6959L950.64 61.5622L954.53 57.7352C962.06 50.3197 975.22 49.51 983.92 55.9367L1011.71 76.4443L994.18 93.6959Z" fill="#323232"/>
<path d="M899.77 30.5793L940.58 60.6929L943.81 57.5136C951.34 50.0981 950.4 38.8812 941.7 32.463L916.64 13.9755L899.77 30.5793Z" fill="#323232"/>
<path d="M764.03 391.542C764.61 360.303 770.93 271.982 744.39 274.667C717.85 277.361 724.17 308.599 722.27 343.605C720.37 378.612 710.9 393.69 722.27 394.235C733.64 394.772 764.03 391.542 764.03 391.542Z" fill="#323232"/>
<path d="M890.35 380.768C852.44 380.768 769.66 364.607 774.09 380.768C778.51 396.929 803.79 405.546 791.15 423.854C778.51 442.163 741.86 416.857 757.66 462.628C773.46 508.408 758.29 519.718 809.47 522.412C860.65 525.105 868.23 522.412 868.23 522.412C868.23 522.412 912.7 471.245 899.31 461.554C885.92 451.863 839.79 447.013 846.74 425.465C853.69 403.926 890.34 380.768 890.34 380.768H890.35Z" fill="#323232"/>
<path d="M997.47 334.451C980.71 327.453 968.32 348.992 966.3 356.536C964.28 364.079 956.48 355.462 955.32 329.064C954.16 302.676 949.48 305.906 934.13 318.291C918.78 330.675 939.86 386.692 936.9 399.614C933.94 412.535 923.64 398.54 914.89 385.072C906.14 371.605 894.35 380.725 901.82 404.711C909.3 428.696 920.84 428.159 919.49 451.317C918.14 474.476 903.15 482.019 919.49 483.63C935.83 485.249 937.73 461.008 961.74 452.928C985.75 444.848 1004.39 431.926 1007.71 422.226C1011.03 412.535 1006.01 398.497 997.46 404.702C988.91 410.916 965.53 428.15 961.74 422.226C957.95 416.303 999.98 391.525 1012.14 383.99C1024.3 376.447 1022.1 371.605 1012.14 366.755C1002.18 361.905 966.37 387.34 959.95 394.286C953.53 401.224 982.51 378.185 991.08 361.437C999.65 344.679 997.46 334.451 997.46 334.451H997.47Z" fill="#323232"/>
<path d="M612.02 406.279C639.656 406.279 662.06 387.183 662.06 363.627C662.06 340.071 639.656 320.975 612.02 320.975C584.384 320.975 561.98 340.071 561.98 363.627C561.98 387.183 584.384 406.279 612.02 406.279Z" fill="#323232"/>
<path d="M977.74 280.438C977.74 296.607 993.18 309.767 1012.15 309.767C1031.12 309.767 1046.56 296.607 1046.56 280.438C1046.56 264.269 1031.12 251.108 1012.15 251.108C993.18 251.108 977.74 264.269 977.74 280.438ZM1012.15 229.152C978.97 229.152 951.98 252.157 951.98 280.438C951.98 308.719 978.97 331.732 1012.15 331.732C1012.97 331.732 1013.79 331.715 1014.6 331.681V229.203C1013.79 229.169 1012.97 229.152 1012.15 229.152Z" fill="#323232"/>
<path d="M750.96 458.664L759.55 507.76L736.32 510.709C729.14 511.621 722.46 507.402 721.39 501.282C714.52 511.809 704.48 517.911 691.27 519.591C678.34 521.236 666.66 518.576 656.22 511.604C645.78 504.64 639.47 494.923 637.29 482.454C634.75 467.921 638.7 455.016 649.14 443.723C659.58 432.438 673.33 426.463 689.94 423.59C717.32 418.86 745.31 426.326 750.96 458.656V458.664ZM701.27 492.145C710.41 490.96 716.77 483.613 715.4 475.822L712.46 459.014C711.18 451.684 703.18 446.629 694.58 447.703C688.04 448.53 682.89 451.019 679.11 455.144C675.33 459.278 674.1 465.1 675.41 472.6C676.62 479.504 679.52 484.704 684.13 488.198C688.73 491.702 694.45 493.014 701.26 492.145H701.27Z" fill="#323232"/>
<path d="M605.63 514.221V462.764C605.63 455.228 598.464 449.118 589.625 449.118C580.786 449.118 573.62 455.228 573.62 462.764V514.221C573.62 521.757 580.786 527.867 589.625 527.867C598.464 527.867 605.63 521.757 605.63 514.221Z" fill="#323232"/>
<path d="M1032.81 379.805C1017.52 387.885 1035.18 397.449 1025.07 425.448C1014.96 453.457 995.58 484.849 961.04 484.593C926.5 484.337 908.81 494.387 908.81 505.16C908.81 515.934 908.81 524.492 908.81 524.492C908.81 524.492 1045.14 531.089 1056.66 516.616C1065.37 505.672 1064.11 494.728 1057.12 467.759C1051.87 447.482 1045.96 439.095 1049.32 405.478C1051.46 384.109 1032.81 379.813 1032.81 379.813V379.805Z" fill="#323232"/>
<path d="M1052.84 105.152H1039.63V56.7039C1039.63 52.783 1043.83 49.8424 1048.34 50.6095L1062.9 53.0643V96.5939C1062.9 101.324 1058.4 105.16 1052.85 105.16L1052.84 105.152Z" fill="#323232"/>
<path d="M867.21 50.2942L857.51 57.9398L818.93 22.3541C815.81 19.4731 816.55 14.8875 820.47 12.8418L833.11 6.21906L867.77 38.1908C871.54 41.6684 871.29 47.0893 867.21 50.3027V50.2942Z" fill="#323232"/>
<path d="M1041.86 39.7591C1044.45 41.7792 1047.62 42.785 1051.39 42.785C1055.16 42.785 1058.29 41.7962 1060.79 39.8188C1063.29 37.8413 1064.54 35.2843 1064.54 32.1476C1064.54 29.1644 1063.27 26.6244 1060.73 24.5276C1058.19 22.4393 1055.08 21.3909 1051.4 21.3909C1047.63 21.3909 1044.46 22.4393 1041.87 24.5276C1039.29 26.6158 1037.99 29.1559 1037.99 32.1476C1037.99 35.2076 1039.28 37.7476 1041.87 39.7676L1041.86 39.7591Z" fill="#323232"/>
<path d="M1007.4 39.7591C1009.99 41.7792 1013.16 42.785 1016.93 42.785C1020.7 42.785 1023.83 41.7962 1026.33 39.8188C1028.83 37.8413 1030.08 35.2843 1030.08 32.1476C1030.08 29.1644 1028.81 26.6244 1026.27 24.5276C1023.73 22.4393 1020.62 21.3909 1016.94 21.3909C1013.17 21.3909 1010 22.4393 1007.41 24.5276C1004.83 26.6158 1003.53 29.1559 1003.53 32.1476C1003.53 35.2076 1004.82 37.7476 1007.41 39.7676L1007.4 39.7591Z" fill="#323232"/>
<path d="M970.11 38.8129C972.7 40.833 975.87 41.8388 979.64 41.8388C983.41 41.8388 986.54 40.8501 989.04 38.8726C991.54 36.8952 992.79 34.3381 992.79 31.2014C992.79 28.2182 991.52 25.6782 988.98 23.5814C986.44 21.4932 983.33 20.4448 979.65 20.4448C975.88 20.4448 972.71 21.4932 970.12 23.5814C967.54 25.6697 966.24 28.2097 966.24 31.2014C966.24 34.2614 967.53 36.8014 970.12 38.8215L970.11 38.8129Z" fill="#323232"/>
<path d="M1002.75 112.831C1005.34 114.851 1008.51 115.857 1012.28 115.857C1016.05 115.857 1019.18 114.868 1021.68 112.891C1024.18 110.913 1025.43 108.356 1025.43 105.22C1025.43 102.236 1024.16 99.6965 1021.62 97.5997C1019.08 95.5114 1015.97 94.463 1012.29 94.463C1008.52 94.463 1005.35 95.5114 1002.76 97.5997C1000.18 99.6879 998.88 102.228 998.88 105.22C998.88 108.28 1000.17 110.82 1002.76 112.84L1002.75 112.831Z" fill="#323232"/>
<path d="M797.47 21.263C798.11 24.2718 800.85 49.4588 788.24 47.8223C775.63 46.1773 781.72 21.8171 772.25 24.0076C762.78 26.1982 769.52 52.2205 748 52.4847C726.48 52.7489 737.08 32.7613 736.44 27.8347C735.8 22.9081 729.37 16.3364 723.27 24.5531C717.17 32.7698 719.74 51.6579 706.25 51.3852C692.76 51.1124 693.72 35.5058 693.72 28.6615C693.72 21.8171 694.13 15.5182 687.5 19.081C680.87 22.6439 683.76 50.8311 666.74 49.0582C649.72 47.2853 652.7 40.1597 651.85 25.6527C651 11.1456 650.68 -0.633878 665.78 3.47446C680.88 7.58279 688.26 11.6911 696.29 8.1283C704.32 4.56547 715.24 -3.64268 724.23 1.82942C733.22 7.30152 748.64 13.0549 760.53 9.21931C772.41 5.38373 784.5 -0.633877 791.95 7.57427C799.4 15.7909 797.47 21.263 797.47 21.263Z" fill="#323232"/>
</svg>
