<svg width="191" height="56" viewBox="0 0 191 56" fill="none" xmlns="http://www.w3.org/2000/svg">
<path d="M63.8656 23.0392H55.9712V20.6542C55.9712 18.964 57.3418 17.5934 59.032 17.5934H78.4125V19.263C78.4125 21.349 76.7224 23.0392 74.6363 23.0392H70.5547V41.6439H67.3429C65.4222 41.6439 63.8656 40.0873 63.8656 38.1665V23.0392Z" fill="white"/>
<path d="M86.086 23.1759C86.8413 23.1759 87.5473 23.2618 88.2055 23.4319V29.6456C87.3278 29.3531 86.4263 29.2068 85.5009 29.2068C83.4053 29.2068 81.8455 29.9875 80.8231 31.5457V41.4149H77.6161C75.8146 41.4149 74.355 39.9552 74.355 38.1538V24.4193L77.6256 23.7451C79.1441 23.4319 80.5687 24.5926 80.5687 26.1429V26.9394C81.2508 25.7454 82.0856 24.82 83.073 24.1617C84.0604 23.5034 85.0653 23.1743 86.0876 23.1743L86.086 23.1759Z" fill="white"/>
<path d="M108.75 31.6252V41.5055H104.765C103.535 41.5055 102.536 40.507 102.536 39.2763C101.075 41.1764 99.2098 42.1272 96.9441 42.1272C94.6783 42.1272 92.8451 41.3115 91.298 39.6786C89.7509 38.0457 88.9766 35.9755 88.9766 33.4649C88.9766 30.5408 90.018 28.0986 92.1009 26.1365C94.1838 24.1761 96.6674 23.3429 99.539 23.195C104.272 22.9502 108.75 25.1189 108.75 31.6252ZM99.4293 36.974C100.997 36.9692 102.28 35.6813 102.28 34.1136V30.7301C102.28 29.2561 101.086 28.0588 99.6121 28.0557C98.4912 28.0557 97.5531 28.415 96.7978 29.1337C96.0425 29.8524 95.6641 30.967 95.6641 32.4775C95.6641 33.8671 95.998 34.9627 96.669 35.7672C97.3384 36.5717 98.259 36.974 99.4277 36.974H99.4293Z" fill="white"/>
<path d="M151.381 31.6252V41.5055H147.397C146.166 41.5055 145.167 40.507 145.167 39.2763C143.706 41.1764 141.841 42.1272 139.575 42.1272C137.31 42.1272 135.476 41.3115 133.929 39.6786C132.382 38.0457 131.608 35.9755 131.608 33.4649C131.608 30.5408 132.649 28.0986 134.732 26.1365C136.815 24.1761 139.299 23.3429 142.17 23.195C146.904 22.9502 151.381 25.1189 151.381 31.6252ZM142.061 36.974C143.628 36.9692 144.911 35.6813 144.911 34.1136V30.7301C144.911 29.2561 143.717 28.0588 142.243 28.0557C141.123 28.0557 140.184 28.415 139.429 29.1337C138.674 29.8524 138.295 30.967 138.295 32.4775C138.295 33.8671 138.629 34.9627 139.3 35.7672C139.97 36.5717 140.89 36.974 142.059 36.974H142.061Z" fill="white"/>
<path d="M127.34 26.1397C125.408 24.3223 123.13 23.4685 120.521 23.2379C120.316 23.2205 120.112 23.203 119.904 23.195C118.578 23.1251 117.272 23.2475 116.085 23.5989C113.288 24.4209 111.109 26.5165 110.749 30.4311V45.9194C110.749 47.4028 111.949 48.6065 113.432 48.6065H117.217V41.7695C118.312 41.9396 119.274 42.0254 120.104 42.0254C120.443 42.0254 120.774 42.0175 121.096 41.9905C123.767 41.8172 125.968 40.9252 127.708 39.3034C129.156 37.955 130.066 36.2887 130.434 34.306C130.457 34.0325 130.465 33.7542 130.465 33.4664C130.465 30.5392 129.425 28.1002 127.342 26.1381L127.34 26.1397ZM120.468 37.1648C119.203 37.1648 118.115 36.7991 117.215 36.0693V34.6908C117.18 34.5031 117.158 34.3123 117.158 34.1168V30.7332C117.158 30.5504 117.175 30.3675 117.215 30.1942V28.8713C117.733 28.4754 118.355 28.2369 119.085 28.167C119.32 28.097 119.571 28.0588 119.829 28.0588C120.952 28.0588 121.887 28.4198 122.643 29.1369C123.127 29.598 123.457 30.2149 123.626 31.0019C123.834 31.6236 123.939 32.328 123.939 33.1119C123.939 35.8165 122.782 37.1648 120.468 37.1648Z" fill="white"/>
<path d="M166.066 17.0083L169.227 16.3612C170.917 16.0162 172.498 17.3072 172.498 19.0308V41.6423H168.587C167.335 41.6423 166.321 40.6279 166.321 39.3765C164.786 41.302 162.788 42.264 160.326 42.264C158.108 42.264 156.275 41.4594 154.825 39.8519C153.375 38.2444 152.65 36.1599 152.65 33.6016C152.65 30.6045 153.668 28.1431 155.703 26.2192C157.736 24.2953 160.264 23.3318 163.287 23.3318C164.018 23.3318 164.944 23.4176 166.065 23.5878V17.0083H166.066ZM163.252 37.1108C164.421 37.1108 165.359 36.6974 166.066 35.8674V28.9222C165.213 28.4357 164.276 28.1908 163.252 28.1908C162.107 28.1908 161.169 28.5263 160.438 29.1957C159.706 29.8667 159.341 30.932 159.341 32.3932C159.341 33.8544 159.694 34.977 160.401 35.8292C161.107 36.683 162.058 37.1092 163.252 37.1092V37.1108Z" fill="white"/>
<path d="M175.979 38.8471V24.6467L180.027 23.8469C181.28 23.5989 182.448 24.5577 182.448 25.836V41.6423H178.775C177.231 41.6423 175.98 40.3909 175.98 38.8471H175.979Z" fill="white"/>
<path d="M181.826 20.3076C181.108 20.9658 180.224 21.2949 179.176 21.2949C178.128 21.2949 177.257 20.9722 176.562 20.3266C175.867 19.6811 175.521 18.8463 175.521 17.8224C175.521 16.7984 175.873 16.0193 176.581 15.3372C177.287 14.6551 178.152 14.3132 179.176 14.3132C180.2 14.3132 181.106 14.6551 181.826 15.3372C182.545 16.0193 182.904 16.8477 182.904 17.8224C182.904 18.797 182.545 19.6493 181.826 20.3076Z" fill="#DF4036"/>
<path d="M34.2069 19.3281V40.855C34.2069 40.9252 34.2069 40.9975 34.1965 41.0615C34.1697 41.6624 34.0107 42.2302 33.7485 42.732C33.0939 43.812 31.793 44.6255 30.2154 44.9002C29.8334 44.9704 29.4286 45.0096 29.0198 45.0096C28.6109 45.0096 28.2062 44.9704 27.8242 44.9002C26.2466 44.6276 24.9519 43.814 24.2973 42.732C24.035 42.2302 23.876 41.6624 23.8492 41.0615C23.8389 40.9954 23.8389 40.9252 23.8389 40.855V20.9284H27.8841V39.1576C27.8841 39.775 28.3817 40.2768 29.0033 40.2768C29.6248 40.2768 30.1162 39.775 30.1162 39.1576V37.3715C30.1328 37.3715 30.1431 37.3777 30.1596 37.3818V19.3281H34.2048H34.2069Z" fill="#E5BF27"/>
<path d="M27.8262 44.9002C26.292 44.8837 24.9704 44.0102 24.2993 42.7321C24.9539 43.812 26.2486 44.6256 27.8262 44.9002Z" fill="#E5BF27"/>
<path d="M33.7484 42.7341C33.0773 44.0123 31.7496 44.8857 30.2153 44.9022C31.7929 44.6297 33.0918 43.8161 33.7484 42.7341Z" fill="#E5BF27"/>
<path d="M23.8513 41.0635C23.8781 41.6644 24.0371 42.2323 24.2994 42.7341C24.0103 42.2529 23.8472 41.714 23.8472 41.1503C23.8472 41.1234 23.8472 41.0904 23.8534 41.0635H23.8513Z" fill="#E5BF27"/>
<path d="M34.2027 41.1503C34.2027 41.7119 34.0396 42.2529 33.7505 42.7341C34.0127 42.2323 34.1717 41.6644 34.1986 41.0635C34.2048 41.0904 34.2048 41.1234 34.2048 41.1503H34.2027Z" fill="#E5BF27"/>
<path d="M45.9997 19.3302H30.1597V17.6968C30.1597 14.5334 32.7243 11.9667 35.8898 11.9667H45.9997V19.3302Z" fill="#DF4036"/>
<path d="M13.0415 20.9305H27.8863V19.5739C27.8863 16.4104 25.3216 13.8437 22.1561 13.8437H13.0415V20.9305Z" fill="#00ADCD"/>
</svg>


